<svg width="239" height="239" fill="none" xmlns="http://www.w3.org/2000/svg"><circle cx="119.5" cy="119.5" r="119.5" fill="#4847A0"/><path d="M100.484 134.094c0-2.656-.937-4.688-2.812-6.094-1.875-1.438-5.25-2.938-10.125-4.5-4.875-1.594-8.734-3.156-11.578-4.688-7.75-4.187-11.625-9.828-11.625-16.921 0-3.688 1.031-6.97 3.094-9.844 2.093-2.906 5.078-5.172 8.953-6.797 3.906-1.625 8.28-2.438 13.125-2.438 4.875 0 9.218.891 13.031 2.672 3.812 1.75 6.765 4.235 8.859 7.454 2.125 3.218 3.188 6.874 3.188 10.968h-14.063c0-3.125-.984-5.547-2.953-7.265-1.969-1.75-4.734-2.625-8.297-2.625-3.437 0-6.11.734-8.015 2.203-1.907 1.437-2.86 3.344-2.86 5.719 0 2.218 1.11 4.078 3.328 5.578 2.25 1.5 5.547 2.906 9.891 4.218 8 2.407 13.828 5.391 17.484 8.954 3.657 3.562 5.485 8 5.485 13.312 0 5.906-2.235 10.547-6.703 13.922-4.469 3.344-10.485 5.016-18.047 5.016-5.25 0-10.031-.954-14.344-2.86-4.313-1.937-7.61-4.578-9.89-7.922-2.25-3.344-3.376-7.218-3.376-11.625h14.11c0 7.531 4.5 11.297 13.5 11.297 3.344 0 5.953-.672 7.828-2.016 1.875-1.374 2.812-3.281 2.812-5.718zm48.938-7.078h-11.203V152h-14.063V83.75h25.36c8.062 0 14.281 1.797 18.656 5.39 4.375 3.594 6.562 8.672 6.562 15.235 0 4.656-1.015 8.547-3.046 11.672-2 3.094-5.047 5.562-9.141 7.406l14.765 27.891V152h-15.093l-12.797-24.984zm-11.203-11.391h11.343c3.532 0 6.266-.891 8.204-2.672 1.937-1.812 2.906-4.297 2.906-7.453 0-3.219-.922-5.75-2.766-7.594-1.812-1.844-4.609-2.765-8.39-2.765h-11.297v20.484z" fill="#fff"/></svg>